<svg width="331" height="331" xmlns="http://www.w3.org/2000/svg" xmlns:xlink="http://www.w3.org/1999/xlink" overflow="hidden"><defs><clipPath id="clip0"><rect x="493" y="205" width="331" height="331"/></clipPath><clipPath id="clip1"><rect x="494" y="206" width="330" height="330"/></clipPath><clipPath id="clip2"><rect x="494" y="206" width="330" height="330"/></clipPath><clipPath id="clip3"><rect x="494" y="206" width="330" height="330"/></clipPath></defs><g clip-path="url(#clip0)" transform="translate(-493 -205)"><g clip-path="url(#clip1)"><g clip-path="url(#clip2)"><g clip-path="url(#clip3)"><path d="M528.375 322.875 528.375 250.688 551.406 273.719C574.438 253.094 605.031 240.375 638.375 240.375 710.562 240.375 769 298.812 769 371 769 443.188 710.562 501.625 638.375 501.625 602.281 501.625 569.625 486.844 545.906 463.469L575.125 434.25C591.281 450.406 613.625 460.375 638.375 460.375 687.531 460.375 727.75 420.156 727.75 371 727.75 321.844 687.531 281.625 638.375 281.625 616.375 281.625 596.094 289.531 580.625 302.938L600.562 322.875 528.375 322.875Z" stroke="#000000" stroke-width="2.00608" stroke-linecap="butt" stroke-linejoin="miter" stroke-miterlimit="4" stroke-opacity="1" fill="#FFFFFF" fill-rule="nonzero" fill-opacity="1"/></g></g></g></g></svg>